# xmcd
#
# Track frame offsets:
#	150
#	23379
#	45574
#	66062
#	87846
#	105081
#	119262
#	139083
#	161940
#	179212
#	204431
#	221915
#	241101
#	262076
#	281840
#	304564
#	331107
#
# Disc length: 4701 seconds
#
# Revision: 0
# Processed by: cddbd v1.5.2PL0 Copyright (c) Steve Scherf et al.
# Submitted via: EZCDAudioConverter 1.0.2.1
#
DISCID=ef125b11
DTITLE=Loan Chau - Lang du
DYEAR=1900
DGENRE=Pop
TTITLE0=Loan Chau - Bai tinh ca cho ky niem
TTITLE1=Loan Chau - Co Xanh
TTITLE2=Loan Chau - Con Gai
TTITLE3=Loan Chau - Dang Xua Ve Dau
TTITLE4=Loan Chau - Giot Nang Hong
TTITLE5=Loan Chau - Ke Phu Tinh
TTITLE6=Loan Chau - Tha Lam Hat Mua Bay
TTITLE7=Loan Chau - Tinh Cuong Dien
TTITLE8=Loan Chau - Tuoi Ngoc
TTITLE9=Loan Chau - Xin dung co mua dong
TTITLE10=Loan Chau, Lam Nhat Tien - Lang Du
TTITLE11=Loan Chau - Bai Ngoi Ca Tinh Yeu
TTITLE12=Loan Chau - Con Mua Cuoi
TTITLE13=Loan Chau, Tran Thai Hoa - Dau Yeu
TTITLE14=Ngoc Lien, Loan Chau - Ngan Thu Ao Tim
TTITLE15=Hop Ca - Lien Khuc Tinh
TTITLE16=The Son, Loan Chau - Tinh Yeu Noi Nho
EXTD=
EXTT0=
EXTT1=
EXTT2=
EXTT3=
EXTT4=
EXTT5=
EXTT6=
EXTT7=
EXTT8=
EXTT9=
EXTT10=
EXTT11=
EXTT12=
EXTT13=
EXTT14=
EXTT15=
EXTT16=
PLAYORDER=
